<?xml version="1.0" encoding="utf-8"?>
<!-- Generator: Adobe Illustrator 22.0.1, SVG Export Plug-In . SVG Version: 6.00 Build 0)  -->
<svg version="1.1" id="Layer_1" xmlns="http://www.w3.org/2000/svg" xmlns:xlink="http://www.w3.org/1999/xlink" x="0px" y="0px"
	 width="512px" height="512px" viewBox="0 0 512 512" style="enable-background:new 0 0 512 512;" xml:space="preserve">
<style type="text/css">
	.st0{fill:#FFEE00;}
</style>
<g>
	<path class="st0" d="M0,382.8c2.6-3,5.1-6,7.9-8.9c20.8-21.6,41.6-43.2,62.4-64.8c6.6-6.9,11.6-7.1,18.2-0.4
		c3.9,3.9,7.2,8.3,11.3,13.1c2.3-2.9,3.4-4.3,4.5-5.7c18.3-23.2,40.6-40.2,70-46.6c17.3-3.8,34.5-2.8,51.4,1.8
		c16.2,4.4,32.7,6.2,49.4,6.1c23.8,0,47.7,0.2,71.5-0.1c15.1-0.2,27.4,4.6,36.2,18.2c1.5-1.3,2.8-2.5,4-3.7
		c17.5-17.3,35-34.8,52.6-52c18-17.6,47.2-16.1,63.6,3c12,13.9,12,31.8-0.6,46.9C488,307.3,473,324.6,458.3,342
		c-11.8,13.8-23.9,27.4-35.2,41.6c-14.4,18-33.5,26.2-55.7,27.1c-24.8,1-49.6,0.5-74.5,0.6c-23.8,0.2-47.7,0.2-71.5,0.6
		c-7.6,0.1-15.1,1.4-23.7,2.3c1.6,1.8,2.6,3,3.7,4.1c6.4,6.4,6.6,11.6,0.2,18c-16.3,16.7-32.6,33.4-48.9,50.1
		c-5.7,5.8-11.3,11.7-17.1,17.5c-5.5,5.5-10.6,5.7-16.2,0.4c-38.5-36.6-77-73.3-115.5-110c-1.6-1.6-2.8-3.7-4.2-5.5
		C0,386.8,0,384.8,0,382.8z M115.8,335.1c19.9,19.3,39.7,38.4,59.3,57.7c2.7,2.7,5.3,3.4,8.9,2.9c24.8-3.5,49.7-4.9,74.7-4.7
		c34.5,0.3,69,0.2,103.5-0.1c19.2-0.2,35.2-7,47.7-22.7c17.3-21.7,35.9-42.5,53.9-63.7c7.9-9.3,15.9-18.4,23.5-27.9
		c7.3-9.1,5.6-18.2-4.1-24.7c-9.8-6.6-21.7-5.6-30.1,2.7c-20.8,20.5-41.5,41-62.1,61.6c-1.3,1.3-2.4,3.2-2.7,5
		c-3.4,23.5-17.2,35.7-40.8,35.8c-21.3,0.1-42.7,0-64,0c-1.3,0-2.7,0-4-0.1c-4.8-0.5-8.3-4-8.8-8.7c-0.5-4.8,2-9,6.6-10.5
		c2-0.6,4.2-0.7,6.4-0.7c22-0.1,44-0.1,66,0c7.1,0,12.7-2.6,16.1-8.9c8-14.7-1.2-30.4-17.8-30.4c-23.7,0-47.3-0.1-71,0
		c-19.2,0.1-38.2-1.8-56.8-7C174.6,278.2,137.4,302.3,115.8,335.1z M182.1,427.5c-34.4-33.4-68.3-66.2-102.4-99.3
		c-18.7,19.4-36.9,38.3-55.4,57.6c34.5,32.9,68.7,65.4,102.9,98C145.8,464.8,163.8,446.4,182.1,427.5z"/>
	<path class="st0" d="M162.6,98.3c6.3,5.4,12.3,10.6,17.9,15.4c5.7-4.9,11.7-10.1,17.8-15.2c-23-31.7-10.7-65.5,8.7-81.3
		c21.8-17.8,53.8-17.5,74.9,0.9c19.9,17.2,29.6,50.5,7.6,80.4c6,5.2,12,10.3,17.8,15.3c5.6-4.8,11.5-9.9,17.9-15.4
		c-11.3-14.9-15.4-32-10.7-50.8c3.4-13.6,11-24.5,22.4-32.7c22.2-16.2,52.9-14.2,73.2,4.5c18.7,17.2,27.8,49.8,5.9,79.6
		c1,0.7,2.1,1.5,3.1,2.2c16.1,10.5,24.7,25.4,25,44.6c0.2,15.3,0.1,30.7,0,46c-0.1,13.5-9.3,23.7-22.7,24.4
		c-12.3,0.7-24.6,0.3-37,0.3c-19.3,0-38.7,0.3-58-0.2c-5.8-0.1-11.5-2.3-17.3-3.4c-1.2-0.2-2.4-0.2-3.6,0.1
		c-5.1,1.1-10.2,3.3-15.4,3.4c-30.8,0.3-61.6,0.3-92.5,0c-5,0-9.9-2.2-14.9-3.2c-1.4-0.3-3-0.2-4.5,0c-5,1-9.9,3.1-14.9,3.2
		c-30.8,0.3-61.6,0.2-92.5,0.1c-17.6-0.1-27.1-9.8-27.1-27.4c0-13.3,0.2-26.7,0-40c-0.3-21.5,8.5-37.9,26.9-49.1
		c0.4-0.2,0.7-0.6,1.4-1.2C61,84.1,56.5,67.7,60.4,49.5c3-13.9,10.3-25.2,21.7-33.7c23-17.4,54.2-15.6,75.1,4.2
		C176.9,38.7,182.9,71.5,162.6,98.3z M370.6,196.1c15.7,0,31.3,0,47,0c3.9,0,6.5-0.9,6.4-5.5c-0.1-15.5,0.2-31-0.2-46.5
		c-0.4-13.9-10.2-25.8-23.7-29.4c-1.8-0.5-4-0.4-5.7,0.3c-15.9,6.7-31.6,6.8-47.5,0c-1.7-0.7-3.9-0.8-5.7-0.4
		c-14.4,3.8-23.8,16.4-24,32.4c-0.2,14.2-0.1,28.3,0,42.5c0,5.7,1,6.6,6.8,6.6C339.6,196.1,355.1,196.1,370.6,196.1z M117,196.1
		c15.8,0,31.6-0.1,47.5,0c3.9,0,6-1.3,6-5.4c-0.1-15.8,0.3-31.6-0.3-47.4c-0.5-13.4-10-24.7-22.9-28.4c-2-0.6-4.7-0.5-6.6,0.3
		c-15.7,6.5-31.3,6.5-47.1-0.1c-1.8-0.7-4.2-0.8-6.1-0.3c-13.6,3.8-23.2,16-23.4,30.1c-0.2,14.8-0.1,29.6-0.1,44.5
		c0,5.9,0.8,6.7,6.6,6.7C86,196.1,101.5,196.1,117,196.1z M243.8,196.1c15.7,0,31.3-0.1,47,0c4.3,0,6.5-1.4,6.4-6
		c-0.2-15.1,0.1-30.3-0.2-45.5c-0.3-14.1-10-26.3-23.6-30c-1.8-0.5-4-0.4-5.7,0.3c-15.9,6.7-31.6,6.8-47.5,0.1
		c-1.8-0.7-4.2-0.8-6.1-0.2c-13.3,3.7-22.8,15.4-23.2,29.2c-0.4,15.1-0.2,30.3-0.2,45.4c0,5.9,0.8,6.6,6.7,6.6
		C212.8,196.1,228.3,196.1,243.8,196.1z M243.9,99.9c20.8,0,37.9-17,38-37.8c0.1-20.9-17.3-38.3-38.2-38.1
		C222.9,24.1,206,41.2,206,62C206,82.9,223,99.9,243.9,99.9z M155,61.8C155,41,137.9,24,117.1,24c-20.7,0-37.9,17.1-38,37.9
		c-0.1,20.9,17.2,38.1,38.3,38C138.2,99.8,155.1,82.7,155,61.8z M332.8,61.7c-0.1,21,16.7,38,37.5,38.2C391.4,100,408.6,83,408.6,62
		c0-20.7-17.1-37.9-37.9-38C350,23.9,332.9,40.9,332.8,61.7z"/>
	<path class="st0" d="M249.3,346.8c0.1,5.8-4.2,10.2-9.9,10.2c-5.6,0-10-4.4-10.2-10.1c-0.1-5.5,4.4-10.1,10-10.2
		C244.9,336.7,249.2,341,249.3,346.8z"/>
</g>
</svg>
