<?xml version="1.0" encoding="utf-8"?>
<!-- Generator: Adobe Illustrator 22.0.1, SVG Export Plug-In . SVG Version: 6.00 Build 0)  -->
<svg version="1.1" id="Layer_1" xmlns="http://www.w3.org/2000/svg" xmlns:xlink="http://www.w3.org/1999/xlink" x="0px" y="0px"
	 width="512px" height="512px" viewBox="0 0 512 512" style="enable-background:new 0 0 512 512;" xml:space="preserve">
<style type="text/css">
	.st0{fill:#FFEE00;}
</style>
<g>
	<path class="st0" d="M404.6,495.2c16.9,0,33,0,49.5,0c0-3.5,0.3-6.7-0.1-9.9c-0.2-1.4-1.5-2.9-2.8-3.8c-5.6-4-11.4-7.6-17.1-11.5
		c-4.8-3.3-6.1-7.7-3.5-11.9c2.7-4.3,7.5-5,12.6-1.8c3.3,2.1,6.6,4.3,10.4,6.9c0-9,0-17.4,0-26.2c-18.7-4.9-31.1-17.3-37.1-35.6
		c-7.9-24.3-4.1-46.8,13.9-65.5c17.6-18.3,44.4-18.4,62.9-1c26.8,25.3,24,73.8-5.8,94.4c-5,3.5-10.9,5.6-16.8,8.5
		c0,18.5,0,37.7,0,57.6c9,0,17.9,0,26.8,0c1.4,0,2.8,0,4.1,0c6.4,0.1,10.3,3.2,10.2,8.4c-0.1,5.1-3.9,8.1-10.4,8.1
		c-56.3,0-112.5,0-168.8,0c-106.5,0-213,0-319.4,0c-1.7,0-3.4,0.1-5.2,0c-4.9-0.4-8.2-3.8-8.1-8.3c0.1-4.5,3.4-8,8.3-8.1
		c9.6-0.2,19.3-0.1,28.9-0.1c1.2,0,2.3,0,3.3,0c0.4-0.7,0.6-1,0.7-1.3c1.6-7.6-0.8-13-8.2-16.5c-4.5-2.1-8.4-5.3-12.5-8.2
		c-4.3-3.1-5.2-7.8-2.5-11.7c2.6-3.7,7.1-4.7,11.4-2.1c3.8,2.3,7.4,4.8,11.6,7.5c0-9.1,0-17.5,0-25.9c-4.2-1.7-8.7-3-12.6-5.3
		C8.6,420.1-0.1,401.6,0.2,379.2s9-41,29.4-52c16-8.6,32-6.6,46.6,4.1c31.2,23,30.3,76.5-1.7,98.4c-4.9,3.3-10.6,5.4-16.5,8.2
		c0,18.4,0,37.7,0,57.3c16.3,0,32.5,0,49.4,0c0-2.2,0-4.4,0-6.5c0-147.6,0-295.2,0-442.8c0-10.6,2.1-12.7,12.6-12.7c16,0,32,0,48,0
		c1.7,0,3.3,0,5.5,0c0-7.8,0-15.2,0-22.5c0-7.7,2.9-10.5,10.7-10.5c48,0,96,0,144,0c7.7,0,10.5,2.9,10.5,10.7c0,7.2,0,14.4,0,22.4
		c2.1,0,3.9,0,5.7,0c16.3,0,32.7,0,49,0c8.8,0,11.3,2.6,11.3,11.4c0,147.9,0,295.9,0,443.8C404.6,490.4,404.6,492.6,404.6,495.2z
		 M124.2,99.3c0,132.2,0,264,0,395.9c33,0,65.6,0,98.7,0c0-2.1,0-3.9,0-5.8c0-21.8,0-43.7,0-65.5c0-8.4,2.7-11,11.2-11
		c14.6,0,29.2,0,43.9,0c8.4,0,11,2.7,11,11.2c0,21.8,0,43.7,0,65.5c0,1.8,0,3.7,0,5.5c33.4,0,66.1,0,98.8,0c0-132.1,0-263.8,0-395.7
		C300,99.3,212.3,99.3,124.2,99.3z M124.1,82.2c88.2,0,176,0,263.6,0c0-11.1,0-21.8,0-32.4c-88.1,0-175.7,0-263.6,0
		C124.1,60.7,124.1,71.3,124.1,82.2z M57.8,420.7c4.6-3.2,8.5-5.1,11.5-7.9c17.7-16.3,17.6-49.7-0.1-66
		c-12.6-11.7-30.1-10.7-41.6,2.3c-14.6,16.5-14.9,44.8-0.2,61.2c3.5,3.9,8.3,6.7,12.5,9.9c0.4-0.4,0.9-0.7,1.3-1.1c0-1.7,0-3.3,0-5
		c0-10.1,0-20.3,0-30.4c0-1.2-0.1-2.4,0-3.6c0.3-4.9,3.6-8.3,8-8.4c4.7-0.1,8.3,3.3,8.4,8.5C57.9,393.1,57.8,405.9,57.8,420.7z
		 M454.2,420.8c0-14.5-0.1-27.2,0-39.9c0-5.7,3.3-9.3,8.2-9.3c4.9,0,8.2,3.6,8.3,9.2c0.1,9.6,0,19.3,0,28.9c0,3.2,0,6.3,0,10.9
		c4.4-2.9,8-4.7,10.9-7.3c18.5-16.2,18.4-50.7,0.1-67.1c-12.2-10.9-28.7-10.2-40.2,1.7c-16.1,16.6-16.1,47.5,0.4,63.8
		C445.1,415.1,449.3,417.4,454.2,420.8z M321.8,16.8c-44.2,0-87.8,0-131.5,0c0,5.5,0,10.7,0,15.9c44.1,0,87.8,0,131.5,0
		C321.8,27.2,321.8,22.1,321.8,16.8z M239.7,429.6c0,22.2,0,43.8,0,65.6c2.7,0,5.2,0,7.7,0c0-22,0-43.7,0-65.6
		C244.7,429.6,242.4,429.6,239.7,429.6z M272.2,495.2c0-22.1,0-43.9,0-65.6c-2.7,0-5,0-7.6,0c0,21.9,0,43.7,0,65.6
		C267.1,495.2,269.5,495.2,272.2,495.2z"/>
	<path class="st0" d="M256.3,396.4c-7.9,0-15.8,0.1-23.7,0c-6.5-0.1-9.5-3.1-9.6-9.5c-0.1-15.7-0.1-31.3,0-47c0-6.5,3.1-9.5,9.5-9.6
		c15.7-0.1,31.3-0.1,47,0c6.5,0,9.6,3.1,9.6,9.5c0.1,15.7,0.1,31.3,0,47c0,6.4-3.1,9.5-9.5,9.6C271.8,396.4,264,396.4,256.3,396.4z
		 M239.8,347.1c0,11.2,0,21.8,0,32.5c11,0,21.7,0,32.4,0c0-11,0-21.7,0-32.5C261.2,347.1,250.6,347.1,239.8,347.1z"/>
	<path class="st0" d="M140.4,139.9c0-7.6-0.1-15.1,0-22.7c0.1-6.8,3-9.8,9.8-9.8c15.5-0.1,31-0.1,46.4,0c6.8,0,9.8,3,9.8,9.8
		c0.1,15.5,0.1,31,0,46.4c0,6.8-3,9.8-9.8,9.8c-15.5,0.1-31,0.1-46.4,0c-6.8,0-9.8-3-9.8-9.8C140.3,155.7,140.4,147.8,140.4,139.9z
		 M157.1,156.5c11.1,0,21.8,0,32.4,0c0-11.1,0-21.8,0-32.4c-11,0-21.6,0-32.4,0C157.1,135,157.1,145.5,157.1,156.5z"/>
	<path class="st0" d="M289,140.4c0,7.7,0.1,15.5,0,23.2c-0.1,6.7-3.1,9.8-9.8,9.8c-15.5,0.1-31,0.1-46.4,0c-6.7,0-9.8-3-9.8-9.8
		c-0.1-15.5-0.1-31,0-46.4c0-6.7,3-9.8,9.8-9.8c15.5-0.1,31-0.1,46.4,0c6.7,0,9.7,3,9.8,9.8C289.1,124.9,289,132.6,289,140.4z
		 M239.8,124.1c0,11.1,0,21.8,0,32.4c11.1,0,21.8,0,32.4,0c0-11,0-21.6,0-32.4C261.4,124.1,250.8,124.1,239.8,124.1z"/>
	<path class="st0" d="M371.6,140.8c0,7.6,0.1,15.1,0,22.7c-0.1,6.8-3,9.9-9.7,9.9c-15.5,0.1-31,0.1-46.4,0c-6.8,0-9.9-3-9.9-9.7
		c-0.1-15.5-0.1-31,0-46.4c0-6.8,3-9.9,9.7-9.9c15.5-0.1,31-0.1,46.4,0c7,0,9.9,3,9.9,10.2C371.6,125.3,371.6,133,371.6,140.8z
		 M354.9,124.3c-11.2,0-21.9,0-32.6,0c0,11,0,21.6,0,32.3c11,0,21.7,0,32.6,0C354.9,145.7,354.9,135.1,354.9,124.3z"/>
	<path class="st0" d="M305.5,363.3c0-7.7-0.1-15.5,0-23.2c0.1-6.8,3-9.8,9.8-9.8c15.5-0.1,31-0.1,46.4,0c6.7,0,9.8,3,9.8,9.8
		c0.1,15.5,0.1,31,0,46.4c0,6.7-3.1,9.8-9.8,9.8c-15.5,0.1-31,0.1-46.4,0c-6.7,0-9.7-3-9.8-9.8C305.5,378.8,305.5,371.1,305.5,363.3
		z M354.8,347.1c-11,0-21.7,0-32.4,0c0,11,0,21.7,0,32.3c11.1,0,21.8,0,32.4,0C354.8,368.5,354.8,357.9,354.8,347.1z"/>
	<path class="st0" d="M206.4,446.4c0,7.6,0.1,15.1,0,22.7c-0.1,6.7-3.1,9.8-9.8,9.8c-15.5,0.1-31,0.1-46.4,0c-6.7,0-9.8-3-9.8-9.8
		c-0.1-15.5-0.1-31,0-46.4c0-6.8,3-9.8,9.8-9.8c15.5-0.1,31-0.1,46.4,0c6.7,0,9.7,3,9.8,9.8C206.5,430.6,206.4,438.5,206.4,446.4z
		 M189.6,462.2c0-11.1,0-21.8,0-32.4c-11.1,0-21.8,0-32.4,0c0,11,0,21.6,0,32.4C168,462.2,178.6,462.2,189.6,462.2z"/>
	<path class="st0" d="M338.6,412.9c7.7,0,15.5-0.1,23.2,0c6.7,0.1,9.8,3,9.8,9.8c0.1,15.5,0.1,31,0,46.4c0,6.7-3.1,9.8-9.8,9.8
		c-15.5,0.1-31,0.1-46.4,0c-6.7,0-9.8-3-9.8-9.8c-0.1-15.5-0.1-31,0-46.4c0-6.7,3-9.7,9.8-9.8C323.1,412.8,330.8,412.9,338.6,412.9z
		 M322.5,429.5c0,10.9,0,21.7,0,32.6c10.9,0,21.6,0,32.2,0c0-11.1,0-21.8,0-32.6C343.8,429.5,333.4,429.5,322.5,429.5z"/>
	<path class="st0" d="M173.2,247.7c-7.7,0-15.5,0.1-23.2,0c-6.5-0.1-9.6-3.1-9.6-9.5c-0.1-15.7-0.1-31.3,0-47c0-6.5,3.1-9.6,9.4-9.6
		c15.7-0.1,31.3-0.1,47,0c6.5,0,9.6,3.1,9.6,9.4c0.1,15.7,0.1,31.3,0,47c0,6.6-3.1,9.6-10,9.6C188.7,247.8,181,247.7,173.2,247.7z
		 M157.3,198.4c0,11.1,0,21.8,0,32.4c11.1,0,21.8,0,32.4,0c0-11,0-21.6,0-32.4C178.8,198.4,168.2,198.4,157.3,198.4z"/>
	<path class="st0" d="M223,214.6c0-7.7-0.1-15.5,0-23.2c0.1-6.7,3.1-9.7,9.8-9.7c15.5-0.1,31-0.1,46.4,0c6.7,0,9.7,3.1,9.7,9.8
		c0.1,15.5,0.1,31,0,46.4c0,6.7-3.1,9.7-9.9,9.7c-15.5,0.1-31,0.1-46.4,0c-6.7,0-9.7-3.1-9.7-9.9C222.9,230.1,223,222.4,223,214.6z
		 M272.3,198.4c-11.2,0-21.7,0-32.5,0c0,11,0,21.7,0,32.4c11,0,21.7,0,32.5,0C272.3,220,272.3,209.4,272.3,198.4z"/>
	<path class="st0" d="M305.5,214.7c0-7.7-0.1-15.5,0-23.2c0.1-6.8,3-9.8,9.8-9.8c15.5-0.1,31-0.1,46.4,0c6.7,0,9.8,3,9.8,9.8
		c0.1,15.5,0.1,31,0,46.4c0,6.7-3.1,9.8-9.8,9.8c-15.5,0.1-31,0.1-46.4,0c-6.7,0-9.7-3-9.8-9.8C305.5,230.2,305.5,222.4,305.5,214.7
		z M354.8,198.5c-11.1,0-21.8,0-32.4,0c0,11.1,0,21.8,0,32.4c11,0,21.6,0,32.4,0C354.8,220.1,354.8,209.5,354.8,198.5z"/>
	<path class="st0" d="M173.9,322c-7.9,0-15.8,0.1-23.7,0c-6.7-0.1-9.7-3.1-9.7-9.8c-0.1-15.5-0.1-31,0-46.4c0-6.7,3-9.7,9.8-9.7
		c15.5-0.1,31-0.1,46.4,0c6.7,0,9.7,3.1,9.7,9.8c0.1,15.5,0.1,31,0,46.4c0,6.7-3.1,9.7-9.8,9.7C189,322.1,181.5,322,173.9,322z
		 M189.7,272.9c-11.3,0-22,0-32.6,0c0,11,0,21.6,0,32.3c11,0,21.7,0,32.6,0C189.7,294.3,189.7,283.7,189.7,272.9z"/>
	<path class="st0" d="M256,322c-7.7,0-15.5,0.1-23.2,0c-6.7-0.1-9.8-3-9.8-9.8c-0.1-15.5-0.1-31,0-46.4c0-6.8,3-9.8,9.8-9.8
		c15.5-0.1,31-0.1,46.4,0c6.7,0,9.8,3,9.8,9.8c0.1,15.5,0.1,31,0,46.4c0,6.7-3.1,9.7-9.8,9.8C271.5,322.1,263.7,322,256,322z
		 M239.7,305.2c11.1,0,21.8,0,32.4,0c0-11.1,0-21.8,0-32.4c-11,0-21.6,0-32.4,0C239.7,283.6,239.7,294.2,239.7,305.2z"/>
	<path class="st0" d="M371.6,289.2c0,7.7,0.1,15.5,0,23.2c-0.1,6.5-3.1,9.6-9.5,9.6c-15.7,0.1-31.3,0.1-47,0c-6.5,0-9.6-3.1-9.6-9.5
		c-0.1-15.7-0.1-31.3,0-47c0-6.5,3.1-9.6,9.5-9.6c15.7-0.1,31.3-0.1,47,0c6.5,0,9.5,3.1,9.6,9.5
		C371.7,273.4,371.6,281.3,371.6,289.2z M354.8,272.8c-11.2,0-21.8,0-32.5,0c0,11,0,21.7,0,32.4c11,0,21.7,0,32.5,0
		C354.8,294.2,354.8,283.6,354.8,272.8z"/>
	<path class="st0" d="M140.4,362.9c0-7.7-0.1-15.5,0-23.2c0.1-6.1,3.1-9.3,9.2-9.3c15.8-0.1,31.7-0.1,47.5,0c6.1,0,9.3,3.1,9.3,9.2
		c0.1,15.8,0.1,31.7,0,47.5c0,6.1-3.1,9.3-9.2,9.3c-15.8,0.1-31.7,0.1-47.5,0c-6.3,0-9.3-3.2-9.3-9.7
		C140.3,378.7,140.4,370.8,140.4,362.9z M189.6,379.6c0-11.1,0-21.8,0-32.4c-11.1,0-21.8,0-32.4,0c0,11,0,21.6,0,32.4
		C168,379.6,178.6,379.6,189.6,379.6z"/>
</g>
</svg>
