<?xml version="1.0" encoding="utf-8"?>
<!-- Generator: Adobe Illustrator 22.0.1, SVG Export Plug-In . SVG Version: 6.00 Build 0)  -->
<svg version="1.1" id="Layer_1" xmlns="http://www.w3.org/2000/svg" xmlns:xlink="http://www.w3.org/1999/xlink" x="0px" y="0px"
	 width="512px" height="512px" viewBox="0 0 512 512" style="enable-background:new 0 0 512 512;" xml:space="preserve">
<style type="text/css">
	.st0{fill:#FFEE00;}
</style>
<g>
	<path class="st0" d="M196.2,494.1c0-39.6,0-79,0-118.6c5.7,0,10.9,0,16.6,0c0,45.1,0,90.2,0,136.6c-12-0.6-24.2,0-35.8-2.1
		c-18.1-3.4-31.6-20.7-31.8-39.2c-0.3-30.2-0.3-60.4,0.1-90.5c0.1-7.1,2.1-14.2,3.4-22.1c-2.2,0-4.4,0-6.7,0c-21,0-41.9,0-62.9,0
		c-36.2,0.1-62.1,25.9-61.9,62.2c0,13.5-0.5,27.1,1.2,40.4c2.2,16.6,17.7,31,32.8,32.4c0-15.3,0-30.5,0-45.7c0-15.3,0-30.5,0-46.2
		c5.6,0,11,0,16.9,0c0,30.9,0,61.7,0,93.1c25.7,0,51,0,76.6,0c0,5.9,0,11.1,0,17.2c-1.7,0-3.6,0-5.4,0c-25.9,0-51.9,0-77.8,0
		C25.9,511.5,0.1,485.7,0.2,450c0-14.2-0.7-28.5,1-42.5c4.6-36.9,35-64.9,72.2-66c27-0.8,54,0.3,80.9,0.4c1.7,0,4.1-1.1,5.1-2.5
		c16.1-21.7,37.7-32.2,64.5-32.3c21.3,0,42.6-0.1,63.9,0c26.8,0.1,48.4,10.6,64.6,32.2c1.2,1.5,4,2.5,6.1,2.5
		c28.6,0.2,57.3-1.5,85.7,0.5c36.6,2.5,65.7,34.3,67.3,70.9c0.7,16.3,1,32.8-1,48.9c-3.3,27.7-28.5,49.1-56.3,49.4
		c-28.1,0.3-56.1,0.1-84.2,0.1c-0.9,0-1.7-0.1-2.9-0.2c0-5.4,0-10.7,0-16.6c25.2,0,50.5,0,76.4,0c0-31.6,0-62.5,0-93.7
		c5.9,0,11.1,0,16.9,0c0,30.8,0,61.4,0,92.1c15.1-1.2,30.5-15.7,33.1-32.3c1.5-9.6,1.2-19.4,1.1-29.2c-0.1-9,0.2-18.3-1.7-27
		c-5.6-26.2-28-45.3-54.9-46.2c-24.1-0.8-48.3-0.2-72.5-0.2c-0.8,0-1.7,0.3-2.1,0.4c6.3,37.6,2.6,75.2,3,112.7
		c0.2,21.7-18.8,39.6-40.5,40.2c-8.9,0.3-17.7,0-27,0c0-45.4,0-90.5,0-136c5.3,0,10.6,0,16.5,0c0,39.4,0,78.9,0,118.2
		c20.3,3.9,34.3-7.6,34.3-27.4c0-26.8,0-53.6,0-80.4c0-35.9-25.9-61.8-61.8-61.8c-21.3-0.1-42.6-0.1-63.9,0
		c-36,0.1-61.7,25.9-61.8,61.8c-0.1,25.9,0.7,51.9-0.3,77.8C161.2,481.6,172.1,497.2,196.2,494.1z"/>
	<path class="st0" d="M460.8,280.9c0-5.3,0-10.5,0-16.2c6.7-1.3,8.5-6,8.4-12.4c-0.3-14.9-0.1-29.8-0.1-44.7
		c0-8.6-2.9-11.4-11.6-11.4c-13,0-25.9,0.1-38.9-0.1c-1.6,0-4.4-1.4-4.7-2.7c-4.5-18.1-11.8-34.9-22-51c10.1-10,20-19.9,30-29.7
		c7.1-7.1,7.1-10.5-0.1-17.7c-10.4-10.4-20.8-20.9-31.3-31.3c-5.9-5.9-10-5.9-15.9-0.2c-9.2,9.1-18.4,18.2-27.5,27.5
		c-2.3,2.4-4,3.1-7.1,1.2c-14.2-9-29.6-15.4-45.9-19.2c-3.6-0.9-4.3-2.5-4.2-5.8c0.2-13.1,0.1-26.3,0.1-39.4
		c0-7.3-3.1-10.5-10.3-10.5c-15.8-0.1-31.6-0.1-47.4,0c-7.5,0-10.5,3.2-10.5,10.9c0,13.1,0,26.3,0,39.4c0,2.3,0.4,4.3-3,5.1
		c-17.9,4.2-34.6,11.4-50.6,21.6c-1.5-1.4-2.9-2.6-4.2-4c-9.2-9.1-18.3-18.4-27.6-27.4c-4.9-4.8-9.5-4.8-14.3,0.1
		c-11.3,11-22.7,22.3-33.9,33.7c-4.9,5-4.9,9.2,0.1,14.3c10.4,10.5,20.8,20.8,31.3,31.3c-3.3,6-6.9,11.5-9.4,17.5
		c-4.1,9.6-7.9,19.4-10.8,29.4c-1.5,5.3-3.3,7.4-9.1,7.2c-12.1-0.6-24.2-0.2-36.2-0.2c-8.4,0-11.3,2.9-11.3,11.1
		c0,15.3,0,30.5,0,45.8c0,7.3,1.3,9.1,8.3,11.8c0,5.2,0,10.5,0,15.8c-12,1.7-24.8-9.2-25.2-22.6c-0.6-18.4-0.5-36.9,0-55.4
		c0.4-13.2,11.8-23.3,25.6-23.6c9.6-0.2,19.2-0.1,28.8,0c2.5,0,4.1-0.4,5.2-3.2c3.8-10.3,8-20.4,12.5-31.4
		c-6.4-6.4-13.5-13.3-20.5-20.3c-13.3-13.3-13.3-27.6,0-40.9c10.7-10.7,21.3-21.4,32-32c12.2-12.1,27.4-12.2,39.6-0.1
		c6.3,6.2,12.7,12.4,18.8,18.9c2.3,2.4,4,2.3,6.9,1c8.7-3.9,17.5-7.7,26.5-11.1c2.9-1.1,3.7-2.4,3.7-5.3c-0.2-9.4-0.1-18.8,0-28.2
		c0.1-15.2,10.9-26.2,26.2-26.3c16.5-0.2,33-0.1,49.6,0c15.6,0.1,26.4,11,26.5,26.6c0.1,9.2,0.1,18.5,0,27.7
		c-0.1,3.1,0.8,4.5,3.9,5.7c9,3.3,17.8,7,26.5,11.1c3.1,1.5,4.7,0.9,6.8-1.3c6.3-6.5,12.7-12.9,19.2-19.2
		c11.4-11.2,26.7-11.4,38-0.3c11.8,11.5,23.5,23.2,35,35c10.6,10.9,10.6,25.7,0,36.7c-6.6,6.9-13.4,13.7-20.4,20.3
		c-2.2,2.1-2.3,3.6-1.1,6.3c4,8.7,7.7,17.5,11.1,26.4c1.2,3.1,2.5,4,5.7,4c9.1-0.2,18.1-0.1,27.2-0.1c16.3,0.1,27.1,10.8,27.1,27.1
		c0.1,16.7,0.2,33.4,0,50.1C485.9,270.4,474.2,281.7,460.8,280.9z"/>
	<path class="st0" d="M375.6,229.9c-6.1,0-11.4,0-17.1,0c-1.3-34.1-14.9-62-42.6-82.4c-19.4-14.3-41.5-20.7-65.6-19.4
		c-51.3,2.8-95.5,43.7-97.1,101.7c-5.4,0-10.7,0-16.9,0c1.3-39.8,16.8-72.5,49.2-95.6c40-28.5,83.2-31.8,126.6-8.8
		C353.3,147.1,373.2,183.1,375.6,229.9z"/>
	<path class="st0" d="M256,298.4c-28.3,0-51.2-22.8-51.2-51c0-28.1,23-51.2,51.1-51.2s51.2,23,51.2,51.1
		C307.1,275.5,284.2,298.3,256,298.4z M255.5,281.3c19,0.2,34.4-14.8,34.6-33.7c0.1-18.8-15.1-34.3-33.9-34.5
		c-18.5-0.1-34,15.1-34.3,33.5C221.6,265.7,236.6,281.1,255.5,281.3z"/>
	<path class="st0" d="M110.7,332.4c-28.2-0.1-51-23.1-50.9-51.3c0.1-28.1,23.4-51.1,51.4-50.9c28.1,0.2,51,23.3,50.9,51.4
		C162,309.8,139,332.5,110.7,332.4z M110.5,315.4c19,0.2,34.4-14.8,34.5-33.7c0.1-18.8-15.2-34.3-33.9-34.4
		c-18.5-0.1-34,15.1-34.3,33.6C76.6,299.8,91.7,315.2,110.5,315.4z"/>
	<path class="st0" d="M400.9,332.4c-28.3,0-51.2-22.8-51.2-51c0-28.1,23.1-51.2,51.1-51.2c28.1,0,51.2,23.1,51.2,51.2
		C452.1,309.6,429.2,332.4,400.9,332.4z M400.8,315.4c19,0.1,34.2-15.1,34.2-34c0-18.8-15.5-34.2-34.2-34.2
		c-18.5,0.1-33.9,15.3-34,33.9C366.7,300,381.8,315.3,400.8,315.4z"/>
	<path class="st0" d="M289.8,494.8c0,5.7,0,10.9,0,16.4c-22.5,0-44.8,0-67.5,0c0-5.3,0-10.7,0-16.4
		C244.6,494.8,267,494.8,289.8,494.8z"/>
</g>
</svg>
