<?xml version="1.0" encoding="utf-8"?>
<!-- Generator: Adobe Illustrator 22.0.1, SVG Export Plug-In . SVG Version: 6.00 Build 0)  -->
<svg version="1.1" id="Layer_1" xmlns="http://www.w3.org/2000/svg" xmlns:xlink="http://www.w3.org/1999/xlink" x="0px" y="0px"
	 width="512px" height="512px" viewBox="0 0 512 512" style="enable-background:new 0 0 512 512;" xml:space="preserve">
<style type="text/css">
	.st0{fill:#FFEE00;}
</style>
<g>
	<path class="st0" d="M286.7,403.9c3.6,3.4,6.1,6.6,9.4,8.5c2.6,1.4,6.7,2.4,9.2,1.4c21.7-8.4,43.3-16.8,64.6-26.2
		c7.3-3.2,14-8.4,20.1-13.7c25.9-22.7,51.5-45.8,77.3-68.7c9.2-8.1,21.2-8.9,31-2.5c11.3,7.4,16.2,19,12.4,30.6
		c-1.1,3.5-3.1,6.8-5.4,9.7c-22.9,28.8-46,57.4-68.9,86.1c-9.7,12.2-21.7,21.4-35.8,27.9c-27.3,12.4-54.5,24.9-81.8,37.4
		c-13.1,6-26.9,9-41.3,8.8c-18.8-0.3-37.7,0.4-56.4-1.3c-12.2-1.1-24.2-5.4-36.1-8.9c-14.6-4.4-29.2-6.8-44.6-4.8
		c-18.1,2.4-36.3,3.8-55.1,5.7c0,3,0.1,5.8,0,8.6c-0.2,5.7-3.3,9.2-8.9,9.2c-22.6,0.1-45.1,0.1-67.7,0c-5.9,0-8.7-3.7-8.7-10.4
		c0-24.7,0-49.4,0-74.1c0-16.5,0-33.1,0-49.6c0-8,2.9-10.9,11-10.9c20.4,0,40.9,0,61.3,0c10.9,0,12.9,2,13.1,13.1
		c0,1.1,0.1,2.1,0.2,3.1c0.4,0.3,0.7,0.7,1,0.7c19.9-0.2,39.8,0,59.7-0.7c11.7-0.4,22.4-5.1,32.3-11.3c7.5-4.7,15.3-9.1,22.5-14.3
		c17.1-12.1,36-18.5,56.6-21.6c25.4-3.9,50.7-8.8,76-13.4c12-2.2,22,1.6,27.9,10.9c6.4,10.2,5.5,20.2-1.2,29.9
		c-6.1,8.8-13.7,15.6-23.8,19.7C320.2,389.5,304.1,396.5,286.7,403.9z M85.6,476.8c16.5-1.7,32.8-3,49-5c17-2.1,33.6-1.6,50,3.6
		c12.2,3.8,24.5,8.3,37,9.6c18.3,1.8,36.9,1,55.3,1.4c12.5,0.3,24.3-2.5,35.6-7.6c26.9-12.3,53.8-24.7,80.8-37
		c12.1-5.5,22.1-13.4,30.3-23.8c9.4-11.8,18.9-23.6,28.3-35.4c13.2-16.5,26.5-33,39.7-49.5c4.9-6.2,4.1-11.6-2.3-15.7
		c-5.1-3.3-9-0.9-12.8,2.5c-24,21.5-48,42.8-71.9,64.3c-9.2,8.2-18.7,15.9-30.2,20.6c-20.9,8.5-41.8,16.9-62.7,25.2
		c-10.7,4.2-20.2,2.1-28.4-5.8c-5-4.8-9.8-9.8-14.7-14.7c-7.8-7.9-6.6-13.5,3.8-17.9c19.6-8.2,39.2-16.5,58.9-24.8
		c7.2-3,12.5-8.3,16-15c1.2-2.4,1.2-6.6-0.2-8.8c-1.4-2.1-5.1-2.9-8-3.9c-1-0.4-2.4,0.2-3.7,0.4c-23.4,4.2-46.7,9-70.3,12.3
		c-21.5,3.1-41.4,9.6-59,22.6c-5.7,4.2-12,7.7-18,11.4c-12.7,7.9-26.3,13.6-41.3,14.3c-17,0.8-34.1,0.6-51.1,0.8
		c-3.3,0-6.6,0-10.1,0C85.6,426.4,85.6,451.4,85.6,476.8z M17.4,384.1c0,37.1,0,73.7,0,110.2c17.1,0,33.9,0,50.6,0
		c0-36.9,0-73.5,0-110.2C51.1,384.1,34.5,384.1,17.4,384.1z"/>
	<path class="st0" d="M256,59.6c44.3,0,88.5,0,132.8,0c9.8,0,12.3,2.5,12.3,12.3c0,71.5,0,142.9,0,214.4c0,9.8-2.5,12.3-12.3,12.3
		c-88.5,0-177,0-265.6,0c-9.8,0-12.3-2.5-12.3-12.3c0-71.5,0-142.9,0-214.4c0-9.8,2.5-12.3,12.3-12.3
		C167.4,59.6,211.7,59.6,256,59.6z M383.6,281.2c0-68.3,0-136.3,0-204.1c-85.4,0-170.4,0-255.3,0c0,68.2,0,136.1,0,204.1
		C213.4,281.2,298.3,281.2,383.6,281.2z"/>
	<path class="st0" d="M82.2,51.2C74.7,43.7,67,36,59.1,28.2c4.1-3.7,8.2-7.5,12.2-11.1c7.3,7.3,15,15.1,22.9,23
		C90.4,43.7,86.3,47.4,82.2,51.2z"/>
	<path class="st0" d="M417.8,40.2c7.8-7.8,15.6-15.6,23.5-23.6c3.7,3.7,7.6,7.6,11.2,11.2c-8,7.9-15.8,15.8-23.8,23.8
		C425.2,47.9,421.4,43.9,417.8,40.2z"/>
	<path class="st0" d="M247.8,0.1c5.6,0,10.8,0,16.4,0c0,11.3,0,22.3,0,33.6c-5.5,0-10.7,0-16.4,0C247.8,22.7,247.8,11.7,247.8,0.1z"
		/>
	<path class="st0" d="M76.4,187.4c-11.3,0-22.2,0-33.4,0c0-5.5,0-10.7,0-16.4c10.9,0,22,0,33.4,0C76.4,176.2,76.4,181.6,76.4,187.4z
		"/>
	<path class="st0" d="M469,170.9c0,5.6,0,10.9,0,16.4c-11.2,0-22.1,0-33.5,0c0-5.3,0-10.6,0-16.4C446.5,170.9,457.5,170.9,469,170.9
		z"/>
	<path class="st0" d="M51,460.9c0,5.6,0,10.8,0,16.4c-5.5,0-10.8,0-16.5,0c0-5.4,0-10.8,0-16.4C39.9,460.9,45.1,460.9,51,460.9z"/>
	<path class="st0" d="M341.2,140.6c-2.9,22.7-10.3,43.7-21.9,63.4c-13.6,23-33,40.1-54.2,55.7c-8.5,6.3-9.6,6.2-18.2,0.2
		c-21-14.6-39.8-31.5-53.3-53.6c-12.1-19.8-19.7-41.2-22.8-64.2c-0.9-6.5,1.7-10.1,8.5-11.1c27-4,50.5-14.9,70.1-34.1
		c4.3-4.2,8.9-4.2,13.2,0c19.6,19.2,43.1,30.1,70.1,34.1C338.7,131.9,341.4,135.2,341.2,140.6z M188.8,146.7
		c8.6,42.9,31.3,75,67,98.2c35.6-23.8,59-55.6,67.3-98.2c-25.6-4.8-47.8-15.7-67.1-32.5C236.4,131.2,214.3,141.9,188.8,146.7z"/>
	<path class="st0" d="M225.3,195c3.6-4.8,6.8-9,10.2-13.5c4.9,3.6,9.5,6.9,14.6,10.6c9.4-15.1,18.6-30.1,28.2-45.5
		c4.9,3,9.5,5.9,14.5,8.9c-6.2,10-12.1,19.6-18,29.2c-4.8,7.8-9.6,15.7-14.6,23.5c-3.6,5.5-8.2,6.4-13.6,2.6
		C239.6,205.8,232.7,200.6,225.3,195z"/>
</g>
</svg>
